<svg width="32" height="32" viewBox="0 0 32 32" xmlns="http://www.w3.org/2000/svg">
  <defs>
    <linearGradient id="shieldGradient" x1="0%" y1="0%" x2="100%" y2="100%">
      <stop offset="0%" style="stop-color:#3b82f6;stop-opacity:1" />
      <stop offset="50%" style="stop-color:#1d4ed8;stop-opacity:1" />
      <stop offset="100%" style="stop-color:#1e40af;stop-opacity:1" />
    </linearGradient>
    <filter id="shadow" x="-20%" y="-20%" width="140%" height="140%">
      <feDropShadow dx="1" dy="1" stdDeviation="2" flood-color="#000000" flood-opacity="0.4"/>
    </filter>
  </defs>
  
  <!-- Shield Background - Made larger and bolder -->
  <path d="M2 6 C2 3, 6 2, 12 2 C18 2, 22 3, 22 6 L22 16 C22 24, 12 28, 12 28 C12 28, 2 24, 2 16 Z" 
        fill="url(#shieldGradient)" 
        filter="url(#shadow)" 
        stroke="#1e40af" 
        stroke-width="1.5"
        transform="translate(4, 2)"/>
  
  <!-- Checkmark - Made bolder -->
  <path d="M6 16 L9 19 L16 10" 
        stroke="#ffffff" 
        stroke-width="3" 
        stroke-linecap="round" 
        stroke-linejoin="round" 
        fill="none"
        transform="translate(4, 2)"/>
  
  <!-- Subtle highlight - Made larger -->
  <ellipse cx="16" cy="10" rx="2.5" ry="1.5" fill="#ffffff" opacity="0.4"/>
  
  <!-- Additional inner shield for boldness -->
  <path d="M4 8 C4 6, 7 5, 12 5 C17 5, 20 6, 20 8 L20 15 C20 21, 12 25, 12 25 C12 25, 4 21, 4 15 Z" 
        fill="none" 
        stroke="#ffffff" 
        stroke-width="0.5" 
        opacity="0.3"
        transform="translate(4, 2)"/>
</svg>
